# xmcd
#
# Track frame offsets:
#	150
#	16492
#	20402
#	45082
#	66392
#	83625
#	97012
#	112085
#	132222
#	149195
#	168627
#	188672
#	196870
#	213537
#	228167
#	252592
#	266610
#	283477
#	300950
#	320127
#
# Disc length: 4365 seconds
#
# Revision: 4
# Processed by: cddbd v1.5.2PL0 Copyright (c) Steve Scherf et al.
# Submitted via: audiograbber 1.83.01
#
DISCID=2c110b14
DTITLE=Project Pat - Layin Da Smack Down
DYEAR=2001
DGENRE=Rap
TTITLE0=Project Pat - Still Ridin' Clean
TTITLE1=Project Pat - The Porch 3
TTITLE2=Project Pat - Fight
TTITLE3=Project Pat - Weak Niggaz
TTITLE4=Project Pat, Juvenile - Make Dat Azz Clap (Back Clap)
TTITLE5=Project Pat - Choose U
TTITLE6=Project Pat - Smokin' Out
TTITLE7=Project Pat - Show Dem Golds
TTITLE8=Project Pat - This Pimp
TTITLE9=Project Pat - On Nigga
TTITLE10=Project Pat - That Drank
TTITLE11=Project Pat - MC Flyjo
TTITLE12=Project Pat - Posse Song
TTITLE13=Project Pat - 90 Days
TTITLE14=Project Pat - Shut Ya Mouth, Bitch
TTITLE15=Project Pat - Take Da Charge
TTITLE16=Project Pat - Smoke and Get High
TTITLE17=Project Pat - County Jail
TTITLE18=Project Pat - I'm Mo
TTITLE19=Project Pat - Outro
EXTD=www.RapMusicGuide.com
EXTT0=
EXTT1=
EXTT2=
EXTT3=
EXTT4=
EXTT5=
EXTT6=
EXTT7=
EXTT8=
EXTT9=
EXTT10=
EXTT11=
EXTT12=
EXTT13=
EXTT14=
EXTT15=
EXTT16=
EXTT17=
EXTT18=
EXTT19=
PLAYORDER=
